<?xml version="1.0" encoding="UTF-8" standalone="no"?>
<!-- Created with Inkscape (http://www.inkscape.org/) -->

<svg
   width="17.169809mm"
   height="14.885204mm"
   viewBox="0 0 17.169809 14.885204"
   version="1.1"
   id="svg1"
   xmlns="http://www.w3.org/2000/svg"
   xmlns:svg="http://www.w3.org/2000/svg">
  <defs
     id="defs1" />
  <g
     id="layer1"
     transform="translate(-100.01247,-141.023)">
    <path
       id="path5"
       d="m 106.92166,149.35657 h 3.36159 c 0.29506,0 0.29506,0.49305 0,0.49305 h -3.36159 c -0.29502,0 -0.29502,-0.49305 0,-0.49305"
       style="fill:#caacdc;fill-opacity:1;fill-rule:nonzero;stroke:none;stroke-width:0.0352778" />
    <path
       id="path6"
       d="m 106.92166,150.16962 h 3.36159 c 0.29506,0 0.29506,0.4929 0,0.4929 h -3.36159 c -0.29502,0 -0.29502,-0.4929 0,-0.4929"
       style="fill:#caacdc;fill-opacity:1;fill-rule:nonzero;stroke:none;stroke-width:0.0352778" />
    <path
       id="path7"
       d="m 106.92166,150.98253 h 3.36159 c 0.29506,0 0.29506,0.49304 0,0.49304 h -3.36159 c -0.29502,0 -0.29502,-0.49304 0,-0.49304"
       style="fill:#caacdc;fill-opacity:1;fill-rule:nonzero;stroke:none;stroke-width:0.0352778" />
    <path
       id="path8"
       d="m 107.72342,151.79543 h 1.7581 c 0.29503,0 0.29503,0.49305 0,0.49305 h -1.7581 c -0.29517,0 -0.29517,-0.49305 0,-0.49305"
       style="fill:#caacdc;fill-opacity:1;fill-rule:nonzero;stroke:none;stroke-width:0.0352778" />
    <path
       id="path9"
       d="m 108.60247,148.64121 c -0.66685,0.75946 -1.40215,0.65155 -1.91809,-0.1324 -0.009,-0.004 -0.0173,-0.009 -0.0249,-0.0153 -0.72224,0.0784 -1.17563,-0.41133 -1.22646,-1.04358 -0.0949,-0.006 -0.1892,-0.0168 -0.28152,-0.0339 -0.54049,-0.33898 -0.70545,-0.95017 -0.47653,-1.49433 -0.6561,-0.53414 -0.42637,-1.2846 0.0632,-1.77891 -0.19251,-0.65222 0.11945,-1.22259 0.72415,-1.43634 10e-4,-0.0277 0.003,-0.0606 0.008,-0.0971 0.0795,-0.67042 0.58664,-0.9838 1.2664,-0.96379 0.4994,-0.80726 1.22287,-0.81898 1.86602,-0.0962 0.64312,-0.72277 1.36645,-0.71105 1.86599,0.0962 0.67966,-0.02 1.18692,0.29337 1.26643,0.96379 0.004,0.0365 0.007,0.0695 0.008,0.0971 0.6047,0.21375 0.91656,0.78412 0.72404,1.43634 0.48977,0.49431 0.71935,1.24477 0.0634,1.77891 0.22874,0.54416 0.0639,1.15535 -0.47653,1.49433 -0.0925,0.0171 -0.18673,0.0284 -0.28152,0.0339 -0.0509,0.63225 -0.50423,1.12201 -1.22661,1.04358 -0.008,0.006 -0.0161,0.0111 -0.0249,0.0153 -0.5158,0.78395 -1.25113,0.89186 -1.91795,0.1324 z m 0.14552,-6.84375 v 6.5931 c 0.004,0.0154 0.005,0.0321 9.6e-4,0.0492 0.33073,0.39649 0.64339,0.51305 0.91845,0.45547 -0.30991,-0.13906 -0.49417,-0.42086 -0.53661,-0.78094 -0.0103,-0.0874 -0.007,-0.14443 -0.007,-0.14443 0.007,-0.1615 0.24959,-0.15035 0.24215,0.0112 -0.0145,0.38309 0.22941,0.69935 0.62808,0.75625 0.12238,-0.0948 0.23262,-0.22338 0.32826,-0.37165 -0.15462,-0.40844 0.0153,-0.7166 0.42457,-0.834 0.0768,-0.0221 0.13201,-0.028 0.13201,-0.028 0.16069,-0.0182 0.18785,0.22271 0.0273,0.24088 0,0 -0.0386,0.005 -0.0925,0.0202 -0.26003,0.0745 -0.36008,0.22831 -0.27781,0.47857 0.58815,0.0465 0.94255,-0.28564 0.99258,-0.79237 -0.64686,-0.0328 -1.26902,-0.35292 -1.449,-1.06811 -0.0394,-0.1567 0.19568,-0.21593 0.23509,-0.0591 0.0846,0.33609 0.2716,0.54737 0.49113,0.67853 0.25273,-0.40636 0.26639,-0.94368 -0.11684,-1.30058 -0.17462,-0.148 -0.38601,-0.20821 -0.60085,-0.20299 -0.0325,0.0394 -0.0875,0.0596 -0.14799,0.028 l -0.0204,-0.0109 c -0.18051,0.0321 -0.35704,0.10636 -0.50987,0.20972 -0.13395,0.0905 -0.26984,-0.11024 -0.13589,-0.20076 0.12115,-0.082 0.24793,-0.14704 0.37758,-0.1928 -0.23135,-0.19512 -0.41476,-0.45268 -0.54197,-0.72125 -0.0347,-0.0736 -0.0513,-0.11934 -0.0513,-0.11934 -0.0553,-0.15188 0.17265,-0.23471 0.22779,-0.0828 0.11797,0.32082 0.38407,0.66379 0.6773,0.8515 0.25851,-0.0275 0.51992,0.0247 0.76358,0.17293 0.0816,0.0496 0.12637,0.0907 0.12637,0.0907 0.0989,0.0921 0.17678,0.19113 0.23562,0.29464 0.19844,-0.18549 0.43769,-0.29104 0.63433,-0.3514 0.24363,-0.0747 0.43533,-0.0839 0.43533,-0.0839 0.16136,-0.008 0.17377,0.234 0.0122,0.24211 -0.33691,0.0182 -0.74828,0.1789 -0.98048,0.43632 0.0888,0.31584 0.0303,0.65786 -0.13007,0.97606 -0.0127,0.0252 -0.0249,0.0478 -0.0361,0.0677 0.20948,0.0759 0.42707,0.0986 0.60237,0.101 0.0193,-0.004 0.0395,-0.004 0.0588,0 0.13381,-0.002 0.2359,-0.0142 0.27958,-0.0207 0.56335,-0.3689 0.4228,-0.94244 0.34025,-1.1643 -0.19569,0.11161 -0.34202,0.30166 -0.39303,0.53096 -0.0351,0.15776 -0.27174,0.10513 -0.23675,-0.0526 0.0833,-0.37359 0.36312,-0.67056 0.7221,-0.78165 0.58029,-0.47375 0.16937,-1.08617 -0.0456,-1.33819 -0.29944,0.42978 -0.82571,0.77127 -1.36631,0.5588 -0.1505,-0.0591 -0.0617,-0.28487 0.0887,-0.22575 0.6102,0.23993 1.07393,-0.46065 1.13179,-0.55368 0.003,-0.0145 0.008,-0.0285 0.0155,-0.0414 0.25576,-0.73836 -0.28759,-1.0626 -0.52765,-1.16649 -0.0713,0.38844 -0.33168,0.76299 -0.66312,0.95468 -0.16923,0.14842 -0.37938,0.3991 -0.40418,0.62135 -0.0179,0.16069 -0.25879,0.13395 -0.24087,-0.0267 0.0124,-0.11095 0.0528,-0.21982 0.10939,-0.32262 -0.15144,-0.13518 -0.33581,-0.22271 -0.51869,-0.21787 -0.0191,0.007 -0.0403,0.01 -0.0623,0.005 -0.13025,0.0189 -0.25785,0.0878 -0.37003,0.22282 -0.10333,0.12442 -0.28977,-0.0306 -0.18658,-0.15491 0.0999,-0.12029 0.20824,-0.20366 0.32081,-0.25491 -0.17364,-0.17724 -0.31129,-0.40048 -0.32561,-0.64785 -0.003,-0.0589 0.003,-0.0926 0.003,-0.0926 0.0249,-0.1597 0.26444,-0.1222 0.2395,0.0375 -0.0248,0.23343 0.20285,0.49622 0.37193,0.63846 0.21608,-0.003 0.436,0.0883 0.63472,0.24116 l 0.0285,0.0224 c 0.0572,-0.0723 0.11945,-0.13917 0.1808,-0.19843 0.0433,-0.0419 0.0803,-0.0728 0.0803,-0.0728 0.32797,-0.18591 0.51897,-0.50119 0.57023,-0.86402 0.009,-0.0617 0.009,-0.0998 0.009,-0.0998 1.4e-4,-0.0329 0.0103,-0.0591 0.0265,-0.0784 l -0.003,-0.0262 c -0.0689,-0.58209 -0.49389,-0.75354 -1.03107,-0.74705 -0.16549,0.37564 -0.24102,0.93956 0.21678,1.14212 0.14771,0.0654 0.0496,0.28716 -0.0983,0.22172 -0.45431,-0.20105 -0.53576,-0.6248 -0.46605,-1.03187 -0.33525,-0.12499 -0.8169,-0.15932 -0.99053,0.22475 -0.0667,0.14732 -0.28759,0.0473 -0.22088,-0.10005 0.22917,-0.50669 0.77777,-0.51054 1.21846,-0.37592 0.0178,0.005 0.0343,0.0108 0.0496,0.0158 0.009,-0.0292 0.0186,-0.0581 0.0286,-0.0865 0.0208,-0.0584 0.0404,-0.10541 0.0542,-0.1367 -0.38847,-0.62989 -0.93528,-0.68778 -1.50565,-0.0145 0.003,0.0165 0.003,0.0327 -0.001,0.0478 z m -0.29104,6.59296 v -6.59296 c -0.004,-0.0151 -0.005,-0.0312 -0.001,-0.0478 -0.57037,-0.67331 -1.11704,-0.61542 -1.50552,0.0145 0.0138,0.0313 0.0333,0.0783 0.054,0.1367 0.0102,0.0284 0.0197,0.0573 0.0288,0.0865 0.0153,-0.005 0.0318,-0.0105 0.0495,-0.0158 0.44069,-0.13462 0.9893,-0.13077 1.2186,0.37592 0.0666,0.14732 -0.15434,0.24737 -0.22091,0.10005 -0.17377,-0.38407 -0.65539,-0.34974 -0.99053,-0.22475 0.0696,0.40707 -0.0119,0.83082 -0.46619,1.03187 -0.14771,0.0654 -0.24596,-0.15628 -0.0981,-0.22172 0.45766,-0.20256 0.38227,-0.76648 0.21664,-1.14212 -0.53717,-0.006 -0.96202,0.16496 -1.03106,0.74705 l -0.003,0.0262 c 0.0161,0.0193 0.0263,0.0455 0.0266,0.0784 0,0 4.2e-4,0.0381 0.009,0.0998 0.0514,0.36283 0.24225,0.67811 0.57037,0.86402 0,0 0.0369,0.0309 0.0802,0.0728 0.0614,0.0593 0.12361,0.12611 0.18094,0.19843 l 0.0285,-0.0224 c 0.19868,-0.15283 0.4185,-0.24405 0.63457,-0.24116 0.16923,-0.14224 0.39688,-0.40503 0.37208,-0.63846 -0.0249,-0.1597 0.21456,-0.1972 0.2395,-0.0375 0,0 0.006,0.0337 0.002,0.0926 -0.0142,0.24737 -0.15202,0.47061 -0.32551,0.64785 0.11261,0.0513 0.22077,0.13462 0.32067,0.25491 0.10337,0.12432 -0.0832,0.27933 -0.18644,0.15491 -0.11218,-0.13505 -0.23978,-0.20394 -0.37013,-0.22282 -0.0218,0.005 -0.043,0.002 -0.0622,-0.005 -0.18285,-0.005 -0.36724,0.0827 -0.51883,0.21787 0.0567,0.1028 0.0971,0.21167 0.10943,0.32262 0.0179,0.16065 -0.22299,0.18739 -0.24088,0.0267 -0.0248,-0.22225 -0.23484,-0.47293 -0.40404,-0.62135 -0.33143,-0.19169 -0.59203,-0.56624 -0.66311,-0.95468 -0.24007,0.10389 -0.78356,0.42813 -0.52765,1.16649 0.008,0.0128 0.0128,0.0269 0.0154,0.0414 0.0579,0.093 0.52144,0.79361 1.13178,0.55368 0.15035,-0.0591 0.23911,0.16662 0.0888,0.22575 -0.5406,0.21247 -1.06702,-0.12902 -1.36635,-0.5588 -0.21495,0.25202 -0.6259,0.86444 -0.0456,1.33819 0.35898,0.11109 0.63888,0.40806 0.72196,0.78165 0.0351,0.15776 -0.20161,0.21039 -0.23661,0.0526 -0.051,-0.2293 -0.19734,-0.41935 -0.39299,-0.53096 -0.0825,0.22186 -0.22314,0.7954 0.34021,1.1643 0.0435,0.006 0.14581,0.019 0.27962,0.0207 0.0193,-0.004 0.0395,-0.004 0.0587,0 0.17543,-0.002 0.39303,-0.0251 0.60233,-0.101 -0.0112,-0.0199 -0.0233,-0.0425 -0.0361,-0.0677 -0.16041,-0.3182 -0.21883,-0.66022 -0.12996,-0.97606 -0.2322,-0.25742 -0.64354,-0.41811 -0.98062,-0.43632 -0.16136,-0.008 -0.14908,-0.25036 0.0124,-0.24211 0,0 0.19166,0.009 0.43519,0.0839 0.19663,0.0604 0.43585,0.16591 0.63443,0.3514 0.0587,-0.10351 0.1367,-0.20257 0.23566,-0.29464 0,0 0.0448,-0.0411 0.12636,-0.0907 0.24363,-0.14827 0.5049,-0.20048 0.76355,-0.17293 0.29313,-0.18771 0.55937,-0.53068 0.6772,-0.8515 0.0552,-0.15187 0.28303,-0.069 0.22779,0.0828 0,0 -0.0164,0.0457 -0.0513,0.11934 -0.12707,0.26857 -0.31048,0.52613 -0.54187,0.72125 0.12968,0.0458 0.25633,0.11078 0.37758,0.1928 0.13381,0.0905 -0.002,0.29129 -0.13586,0.20076 -0.15282,-0.10336 -0.32949,-0.17762 -0.50987,-0.20972 l -0.0204,0.0109 c -0.0606,0.0316 -0.11564,0.0115 -0.14802,-0.028 -0.21484,-0.005 -0.42623,0.055 -0.60082,0.20299 -0.38322,0.3569 -0.3696,0.89422 -0.11687,1.30058 0.21953,-0.13116 0.4064,-0.34244 0.49099,-0.67853 0.0396,-0.15681 0.27468,-0.0976 0.23524,0.0591 -0.1801,0.71519 -0.80229,1.03534 -1.449,1.06811 0.0499,0.50673 0.40431,0.83883 0.99261,0.79237 0.0821,-0.25026 -0.0179,-0.40403 -0.27796,-0.47857 -0.0537,-0.0155 -0.0923,-0.0202 -0.0923,-0.0202 -0.16069,-0.0182 -0.13353,-0.25904 0.0271,-0.24088 0,0 0.0553,0.006 0.13215,0.028 0.40929,0.1174 0.57919,0.42556 0.42446,0.834 0.0956,0.14827 0.20602,0.27686 0.32837,0.37165 0.39867,-0.0569 0.64244,-0.37316 0.62798,-0.75625 -0.007,-0.16153 0.23481,-0.17268 0.24225,-0.0112 0,0 0.003,0.057 -0.007,0.14443 -0.0426,0.36008 -0.2267,0.64188 -0.53661,0.78094 0.27492,0.0576 0.58762,-0.059 0.91835,-0.45547 -0.003,-0.0171 -0.003,-0.0338 10e-4,-0.0493 z m 1.08493,-2.32516 c 0.1076,-0.12058 0.2884,0.0409 0.1808,0.16151 -0.18468,0.20863 -0.32289,0.55343 -0.0514,0.76937 l 0.0103,0.009 c 0.21015,0.0321 0.34463,0.237 0.37924,0.57132 0.0102,0.0992 0.008,0.17293 0.008,0.17293 -0.006,0.16151 -0.24776,0.15325 -0.2424,-0.008 0,0 0.002,-0.0596 -0.006,-0.13974 -0.0398,-0.38488 -0.18535,-0.48507 -0.57175,-0.17363 -0.12584,0.10142 -0.27809,-0.0874 -0.15215,-0.18881 0.1053,-0.0849 0.2038,-0.14591 0.29478,-0.18493 -0.2026,-0.27089 -0.11603,-0.60893 0.0693,-0.88138 0.0458,-0.0671 0.082,-0.10735 0.082,-0.10735 z m -1.87882,0 c 0,0 0.0362,0.0403 0.0819,0.10735 0.18534,0.27245 0.27202,0.61049 0.0693,0.88138 0.0911,0.039 0.18961,0.10005 0.29488,0.18493 0.12584,0.10142 -0.0263,0.29023 -0.15211,0.18881 -0.38654,-0.31144 -0.53192,-0.21125 -0.57175,0.17363 -0.008,0.0802 -0.006,0.13974 -0.006,0.13974 0.006,0.1615 -0.23675,0.16976 -0.24226,0.008 0,0 -0.003,-0.0737 0.008,-0.17293 0.0344,-0.33432 0.16894,-0.53922 0.37909,-0.57132 l 0.0103,-0.009 c 0.2716,-0.21594 0.13325,-0.56074 -0.0513,-0.76937 -0.10777,-0.12058 0.073,-0.28209 0.1808,-0.16151"
       style="fill:#caacdc;fill-opacity:1;fill-rule:nonzero;stroke:none;stroke-width:0.0352778" />
    <path
       id="path10"
       d="m 115.39434,147.39012 c -1.05187,0.67715 -1.35918,1.88803 -2.02903,2.3067 -0.18161,0.11353 -0.35183,-0.15875 -0.17018,-0.27231 0,0 0.0223,-0.0143 0.0607,-0.0448 0.29658,-0.23509 0.53262,-0.58099 0.69938,-0.91376 0.25149,-0.5019 0.7892,-1.03989 1.26502,-1.34582 0.17999,-0.11588 0.35388,0.15396 0.17406,0.26999 z m -1.25306,1.9885 c 0,0 0.0189,-0.0102 0.054,-0.0365 0.37041,-0.27686 0.7155,-0.90827 0.89711,-1.28958 0.24956,-0.40224 0.81347,-1.10339 1.34842,-1.04994 0.21305,0.0212 0.18105,0.34082 -0.032,0.31944 -0.35567,-0.0356 -0.8454,0.58745 -1.03491,0.88512 -0.15544,0.32522 -0.67289,1.27331 -1.09471,1.46142 -0.19332,0.092 -0.33126,-0.19805 -0.13793,-0.28995 z m -0.21361,0.94671 c -0.87669,-0.21731 -1.54051,0.9004 -1.83787,1.49007 -0.88251,0.2759 -3.45598,1.31646 -3.30249,2.69391 0.12337,0.32385 0.37761,0.63832 0.66562,0.8267 0.47802,0.31267 1.31353,0.47198 2.69131,-0.35306 0,0 0.10953,-0.0537 0.28275,-0.17388 1.23444,-0.85619 2.14023,-2.39642 2.67547,-3.74456 0.31736,-0.87754 1.24273,-3.30881 1.8011,-3.88416 0.14909,-0.15349 0.37966,0.0702 0.2304,0.22381 -0.50627,0.52158 -1.4406,2.96735 -1.73217,3.77638 -0.52063,1.31177 -1.70533,3.38183 -3.10459,4.08463 -1.24202,0.74221 -2.78366,1.07418 -3.6401,-0.30536 -0.022,-0.0354 -0.0419,-0.0699 -0.0597,-0.10252 -0.0179,0.0327 -0.0378,0.0671 -0.0598,0.10252 -0.85644,1.37954 -2.39805,1.04757 -3.64007,0.30536 -1.39926,-0.7028 -2.58396,-2.77286 -3.10459,-4.08463 -0.2916,-0.80903 -1.22604,-3.2548 -1.73221,-3.77638 -0.149081,-0.15364 0.0813,-0.3773 0.2304,-0.22381 0.55841,0.57535 1.48375,3.00662 1.80125,3.88416 0.53509,1.34814 1.44089,2.88837 2.67547,3.74456 0.17307,0.12015 0.28264,0.17388 0.28264,0.17388 1.37774,0.82504 2.21326,0.66573 2.69131,0.35306 0.28801,-0.18838 0.54225,-0.50285 0.66558,-0.8267 0.1535,-1.37745 -2.41998,-2.41801 -3.30245,-2.69391 -0.2974,-0.58967 -0.96118,-1.70738 -1.83776,-1.49007 0.19596,0.23633 0.43836,0.62121 0.64106,0.95786 0.29048,0.48232 0.54116,0.94122 0.54116,0.94122 0.34601,0.73988 0.95152,1.35957 1.68452,1.71467 0.12139,0.0587 0.19579,0.0845 0.19579,0.0845 0.20246,0.0695 0.0985,0.37317 -0.10403,0.30385 -0.87024,-0.2946 -1.68893,-1.16113 -2.0628,-1.95778 -0.0258,-0.0471 -0.25933,-0.47169 -0.5297,-0.92078 -0.2697,-0.44803 -0.49763,-0.8872 -0.935,-1.17877 0,0 0.22077,-0.15187 0.26568,-0.1742 1.04524,-0.5213 1.95668,0.66174 2.36664,1.4545 1.00612,0.33627 2.76642,1.11693 3.26694,2.23548 0.50034,-1.11855 2.26067,-1.89921 3.26675,-2.23548 0.40997,-0.79276 1.3214,-1.9758 2.36665,-1.4545 0.0449,0.0223 0.26568,0.1742 0.26568,0.1742 -0.43738,0.29157 -0.66531,0.73074 -0.93501,1.17877 -0.27037,0.44909 -0.50394,0.87365 -0.52983,0.92078 -0.37374,0.79665 -1.19243,1.66318 -2.06266,1.95778 -0.20257,0.0693 -0.30646,-0.23439 -0.10403,-0.30385 0,0 0.0745,-0.0258 0.19582,-0.0845 0.73297,-0.3551 1.33862,-0.97479 1.68452,-1.71467 0,0 0.25079,-0.4589 0.54116,-0.94122 0.2027,-0.33665 0.44524,-0.72153 0.64117,-0.95786 z m -12.12726,-2.93521 c -0.17985,-0.11603 -0.006,-0.38587 0.17402,-0.26999 0.47586,0.30593 1.01357,0.84392 1.26506,1.34582 0.16687,0.33277 0.4028,0.67867 0.69935,0.91376 0.0384,0.0305 0.0608,0.0448 0.0608,0.0448 0.18147,0.11356 0.0114,0.38584 -0.17021,0.27231 -0.66986,-0.41867 -0.97716,-1.62955 -2.029,-2.3067 z m 1.25317,1.9885 c 0.19322,0.0919 0.0553,0.38199 -0.13808,0.28995 -0.42181,-0.18811 -0.93927,-1.1362 -1.09456,-1.46142 -0.18962,-0.29767 -0.67938,-0.92068 -1.03505,-0.88512 -0.21304,0.0214 -0.24486,-0.2982 -0.032,-0.31944 0.53495,-0.0534 1.09883,0.6477 1.34838,1.04994 0.18165,0.38131 0.5267,1.01272 0.89712,1.28958 0.0351,0.0263 0.0541,0.0365 0.0541,0.0365"
       style="fill:#785ab2;fill-opacity:1;fill-rule:nonzero;stroke:none;stroke-width:0.0352777" />
  </g>
</svg>
